#!OML:ASF H:\Pregnant\Project 1\Capture day 1\Session 1\femalepreg.ASF
:FULLY-SPECIFIED
:DEGREES
620
root 11.2089 7.82962 27.9706 -110.643 -3.87963 176.497
lowerback 10.4292 -0.626582 -4.99118
upperback -1.19306 -1.24959 3.85136
thorax -6.94954 -0.351282 7.15082
lowerneck -36.0583 5.66312 4.189
upperneck 24.8333 6.34748 -1.51014
head 14.6724 2.85964 0.109819
rclavicle -9.74045e-015 -1.80894e-014
rhumerus 38.6016 2.92737 -76.5058
rradius 25.4734
rwrist 10.7532
rhand -66.4805 302.506
rfingers 7.12502
rthumb -38.2967 276.788
lclavicle -9.74045e-015 -1.80894e-014
lhumerus 50.1182 -3.86418 66.7893
lradius 29.4811
lwrist 15.0312
lhand -50.3114 -409.443
lfingers 7.12502
lthumb -22.888 -20.7809
rfemur -72.9792 -17.6272 7.193
rtibia 105.482
rfoot 37.7128 44.5962
rtoes 49.1954
lfemur -76.3768 -3.8294 -11.493
ltibia 108.267
lfoot -351.073 -34.4333
ltoes 28.0932
621
root 11.1859 7.83438 27.9524 -110.528 -3.90073 176.598
lowerback 10.4432 -0.684951 -4.8832
upperback -1.17342 -1.31312 3.88025
thorax -6.92751 -0.387913 7.12943
lowerneck -36.0574 5.70765 4.25655
upperneck 24.8655 6.39116 -1.55231
head 14.6924 2.87767 0.0920136
rclavicle -9.93923e-015 -8.94531e-016
rhumerus 38.7162 3.14891 -76.4703
rradius 25.5184
rwrist 10.6395
rhand -66.4673 301.863
rfingers 7.12502
rthumb -38.2842 276.141
lclavicle -9.93923e-015 -8.94531e-016
lhumerus 50.5872 -3.99104 66.3561
lradius 28.9459
lwrist 16.2218
lhand -50.402 -409.434
lfingers 7.12502
lthumb -22.9748 -20.7828
rfemur -73.0463 -17.3695 7.13199
rtibia 105.311
rfoot 37.2019 44.7325
rtoes 48.64
lfemur -76.3413 -3.88469 -11.6173
ltibia 108.165
lfoot -351.501 -34.2794
ltoes 27.7526
622
root 11.1631 7.83944 27.9335 -110.45 -3.92081 176.718
lowerback 10.4931 -0.735258 -4.77865
upperback -1.14251 -1.36783 3.91307
thorax -6.91533 -0.420056 7.1141
lowerneck -36.0521 5.74646 4.31348
upperneck 24.8976 6.43045 -1.58753
head 14.7107 2.894 0.0776965
rclavicle 1.39149e-015 1.10325e-014
rhumerus 38.8332 3.37413 -76.4329
rradius 25.5572
rwrist 10.5266
rhand -66.4546 301.494
rfingers 7.12502
rthumb -38.2722 275.77
lclavicle 1.39149e-015 1.10325e-014
lhumerus 50.9964 -4.14626 65.9173
lradius 28.4703
lwrist 17.4939
lhand -50.4231 -410.338
lfingers 7.12502
lthumb -22.9952 -21.69
rfemur -73.0646 -17.0827 7.07772
rtibia 105.135
rfoot 36.6212 44.8726
rtoes 48.1002
lfemur -76.2446 -3.92608 -11.728
ltibia 108.058
lfoot -351.918 -34.145
ltoes 27.4217
623
root 11.1401 7.84444 27.9145 -110.383 -3.9391 176.853
lowerback 10.5519 -0.780949 -4.67678
upperback -1.1078 -1.41703 3.94852
thorax -6.9051 -0.449428 7.10264
lowerneck -36.0427 5.7809 4.36159
upperneck 24.9279 6.46666 -1.61725
head 14.7268 2.90911 0.0662448
rclavicle 7.95139e-016 1.09332e-015
rhumerus 38.963 3.60791 -76.3835
rradius 25.578
rwrist 10.4144
rhand -66.4564 301.689
rfingers 7.12502
rthumb -38.274 275.965
lclavicle 7.95139e-016 1.09332e-015
lhumerus 51.3461 -4.30392 65.5126
lradius 28.0423
lwrist 18.7531
lhand -50.355 -412.186
lfingers 7.12502
lthumb -22.9298 -23.5294
rfemur -73.0756 -16.7854 7.03664
rtibia 104.964
rfoot 35.9544 45.0229
rtoes 47.5918
lfemur -76.131 -3.95441 -11.8271
ltibia 107.954
lfoot -352.338 -34.0207
ltoes 27.0434
624
root 11.117 7.84929 27.8956 -110.324 -3.95226 176.999
lowerback 10.6177 -0.823592 -4.58158
upperback -1.07125 -1.46315 3.98672
thorax -6.89725 -0.476966 7.09788
lowerneck -36.0266 5.81279 4.40329
upperneck 24.9558 6.50357 -1.64882
head 14.7406 2.92367 0.0550175
rclavicle -1.32192e-014 -1.14798e-014
rhumerus 39.1171 3.85704 -76.3113
rradius 25.5742
rwrist 10.2814
rhand -66.4551 301.977
rfingers 7.12502
rthumb -38.2727 276.253
lclavicle -1.32192e-014 -1.14798e-014
lhumerus 51.6368 -4.42323 65.1938
lradius 27.6425
lwrist 19.8672
lhand -50.1833 -414.815
lfingers 7.12502
lthumb -22.765 -26.1384
rfemur -73.0822 -16.4797 7.004
rtibia 104.8
rfoot 35.2193 45.1682
rtoes 47.1735
lfemur -76.0041 -3.97494 -11.9211
ltibia 107.851
lfoot -352.77 -33.9046
ltoes 26.565
